<svg xmlns="http://www.w3.org/2000/svg" width="387" height="307" viewBox="0 0 387 307">
<g>
<path d="M 176.36 77.52 C171.88,78.88 167.49,80.00 166.61,80.00 C165.19,80.00 165.00,77.78 165.00,61.00 L 165.00 42.00 L 146.00 42.00 L 146.00 32.10 L 180.75 31.80 C199.86,31.63 215.73,31.77 216.00,32.11 C216.27,32.44 218.14,33.01 220.14,33.38 C227.41,34.72 242.00,43.80 242.00,46.99 C242.00,47.54 242.48,48.00 243.06,48.00 C243.64,48.00 243.84,48.45 243.50,49.00 C243.16,49.55 243.39,50.00 244.00,50.00 C244.61,50.00 244.84,50.45 244.50,51.00 C244.16,51.55 244.39,52.00 245.00,52.00 C245.61,52.00 245.84,52.45 245.50,53.00 C245.16,53.55 245.19,54.51 245.58,55.12 C246.60,56.78 246.65,73.00 245.63,73.00 C245.16,73.00 244.98,73.80 245.23,74.78 C245.49,75.76 245.08,77.14 244.32,77.84 C243.19,78.90 242.40,78.67 239.85,76.53 C238.15,75.10 234.79,73.40 232.38,72.76 L 228.00 71.59 L 227.98 65.04 C227.96,57.41 225.62,52.39 219.90,47.80 C214.87,43.74 207.39,42.03 194.70,42.01 L 183.91 42.00 L 184.50 75.03 ZM 179.65 258.16 L 177.50 253.50 L 176.35 267.50 L 176.18 258.25 C176.08,253.16 176.26,249.00 176.57,249.00 C176.89,249.00 177.82,249.68 178.64,250.50 C179.47,251.32 179.83,252.00 179.45,252.00 C179.07,252.00 179.28,252.64 179.93,253.41 C180.57,254.19 181.33,256.10 181.61,257.66 C181.89,259.22 182.54,260.65 183.07,260.84 C183.59,261.02 183.72,261.64 183.37,262.22 C183.01,262.79 183.27,263.08 183.94,262.85 C184.61,262.63 186.38,259.53 187.86,255.97 C191.77,246.61 193.43,247.25 193.79,258.25 C194.03,265.58 193.83,267.00 192.54,267.00 C191.32,267.00 190.99,265.70 190.97,260.75 C190.94,255.05 189.89,254.20 188.82,259.03 C188.65,259.84 188.21,260.73 187.85,261.00 C187.49,261.27 187.04,262.40 186.85,263.50 C186.20,267.21 183.48,268.09 182.47,264.91 C182.11,263.76 180.84,260.72 179.65,258.16 ZM 239.79 265.25 C239.99,266.44 239.44,267.00 238.06,267.00 C236.04,267.00 236.04,266.97 237.91,262.25 C238.32,261.22 238.70,260.26 239.05,259.38 C242.19,251.42 243.10,249.14 243.98,249.14 C244.44,249.14 244.89,249.75 245.64,250.50 C246.47,251.32 246.83,252.00 246.45,252.00 C246.07,252.00 246.32,252.68 247.00,253.50 C247.68,254.32 247.95,255.00 247.59,255.00 C247.23,255.00 247.49,256.01 248.18,257.25 C248.86,258.49 249.33,259.84 249.21,260.25 C249.10,260.66 249.48,261.00 250.06,261.00 C250.64,261.00 250.86,261.42 250.54,261.93 C250.23,262.44 250.42,263.14 250.98,263.49 C252.49,264.42 252.22,267.00 250.62,267.00 C249.86,267.00 248.99,266.07 248.69,264.94 C248.24,263.19 247.50,262.92 243.83,263.19 C240.35,263.44 239.56,263.84 239.79,265.25 ZM 166.00 265.50 C166.00,266.63 164.78,267.00 161.00,267.00 L 156.00 267.00 L 156.00 249.00 L 161.00 249.00 C164.78,249.00 166.00,249.37 166.00,250.50 C166.00,251.55 164.94,252.00 162.50,252.00 C159.67,252.00 159.00,252.38 159.00,254.00 C159.00,255.62 159.67,256.00 162.50,256.00 C164.94,256.00 166.00,256.45 166.00,257.50 C166.00,258.55 164.94,259.00 162.50,259.00 C159.43,259.00 159.00,259.31 159.00,261.50 C159.00,263.69 159.43,264.00 162.50,264.00 C164.94,264.00 166.00,264.45 166.00,265.50 ZM 135.00 263.00 C135.00,265.20 134.55,267.00 134.00,267.00 C133.42,267.00 133.00,263.69 133.00,259.06 C133.00,254.69 133.45,250.84 134.00,250.50 C134.59,250.14 135.00,251.25 135.00,253.22 C135.00,256.51 135.06,256.55 139.50,256.53 L 143.99 256.50 L 144.00 252.75 C144.00,250.08 144.43,249.00 145.50,249.00 C146.72,249.00 147.00,250.67 147.00,258.00 C147.00,265.33 146.72,267.00 145.50,267.00 C144.42,267.00 144.00,265.89 144.00,263.00 L 144.00 259.00 L 135.00 259.00 ZM 290.58 264.57 C287.25,267.90 281.58,268.22 279.25,265.22 C277.57,263.07 277.68,262.00 279.56,262.00 C280.42,262.00 280.84,262.45 280.50,263.00 C280.16,263.54 281.02,264.51 282.41,265.14 C284.37,266.03 285.29,266.01 286.47,265.02 C289.21,262.75 288.24,260.52 283.84,258.97 C278.32,257.02 277.08,254.96 279.58,251.87 C282.53,248.23 290.05,249.67 289.97,253.87 C289.94,255.32 289.79,255.30 288.61,253.75 C286.90,251.50 281.17,251.40 280.32,253.60 C279.58,255.54 281.84,257.16 284.25,256.41 C285.21,256.11 286.00,256.31 286.00,256.85 C286.00,257.40 287.35,258.14 289.00,258.50 C292.32,259.23 293.06,262.08 290.58,264.57 ZM 123.24 264.81 C120.81,267.62 118.05,268.14 114.24,266.50 C106.01,262.94 108.58,249.50 117.50,249.50 C121.05,249.50 125.54,252.86 124.01,254.39 C123.34,255.06 122.58,254.81 121.70,253.61 C119.83,251.04 115.16,251.88 112.67,255.23 C110.83,257.70 110.77,258.22 112.07,260.73 C114.93,266.27 118.72,267.03 122.11,262.76 C123.07,261.54 123.97,261.14 124.35,261.76 C124.70,262.33 124.20,263.70 123.24,264.81 ZM 226.68 265.75 C224.86,266.99 223.18,267.94 222.94,267.86 C222.70,267.79 221.50,267.53 220.27,267.30 C214.18,266.12 211.75,255.92 216.63,252.07 C219.69,249.67 224.65,249.42 227.44,251.53 C228.51,252.34 228.96,253.01 228.44,253.02 C227.92,253.02 228.18,253.47 229.00,254.00 C230.31,254.84 230.29,254.97 228.87,254.98 C227.98,254.99 226.68,254.32 226.00,253.50 C225.32,252.68 223.47,252.00 221.90,252.00 C216.32,252.00 214.32,260.41 218.99,264.20 C221.51,266.23 223.00,266.51 223.00,264.94 C223.00,264.36 223.40,264.13 223.89,264.43 C224.37,264.73 225.33,264.31 226.01,263.49 C227.29,261.94 230.01,261.44 229.99,262.75 C229.99,263.16 228.50,264.51 226.68,265.75 ZM 270.00 265.50 C270.00,266.63 268.78,267.00 265.00,267.00 L 260.00 267.00 L 260.00 257.93 C260.00,249.87 260.17,249.02 261.50,250.36 C262.50,251.36 263.00,253.87 263.00,257.93 L 263.00 264.00 L 266.50 264.00 C268.94,264.00 270.00,264.45 270.00,265.50 ZM 206.00 259.43 C206.00,265.49 205.70,267.00 204.50,267.00 C203.28,267.00 203.00,265.33 203.00,257.93 C203.00,249.87 203.17,249.02 204.50,250.36 C205.57,251.43 206.00,254.03 206.00,259.43 ZM 241.60 261.16 C242.17,262.09 247.00,261.89 247.00,260.93 C247.00,259.11 244.67,254.00 243.84,254.00 C243.31,254.00 243.16,254.45 243.50,255.00 C243.84,255.55 243.69,256.00 243.18,256.00 C242.08,256.00 240.86,259.97 241.60,261.16 Z" fill="rgb(57,58,123)"/>
<path d="M 222.91 171.62 C217.68,172.98 209.86,173.37 180.25,173.73 L 144.00 174.17 L 144.00 170.09 C144.00,166.71 144.34,166.00 145.94,166.00 C147.01,166.00 148.19,165.50 148.56,164.90 C149.00,164.18 151.08,164.03 154.48,164.45 C157.36,164.81 160.91,164.81 162.36,164.45 L 165.00 163.78 L 165.00 132.89 C165.00,130.28 165.00,127.87 164.99,125.66 C164.96,108.42 164.95,103.05 167.01,102.09 C167.94,101.66 169.29,102.12 171.25,102.80 C171.81,103.00 172.41,103.21 173.07,103.42 C175.51,104.20 178.73,105.10 180.23,105.43 L 182.97 106.03 L 183.23 134.65 L 183.50 163.28 L 196.25 163.39 C203.26,163.45 209.00,163.11 209.00,162.64 C209.00,162.17 210.10,162.06 211.44,162.40 C212.78,162.73 214.16,162.55 214.51,161.99 C214.85,161.43 215.54,161.21 216.03,161.52 C219.28,163.53 231.12,153.74 233.47,147.10 C236.94,137.25 234.30,121.46 227.87,113.66 C221.98,106.51 212.02,103.00 193.50,101.53 C176.10,100.16 163.57,95.17 151.58,84.85 C151.08,84.42 152.33,84.21 154.36,84.40 C156.40,84.58 158.35,85.02 158.70,85.36 C159.72,86.39 166.82,86.09 167.50,85.00 C167.84,84.44 169.22,84.27 170.56,84.60 C171.95,84.95 173.00,84.78 173.00,84.20 C173.00,83.64 173.97,83.44 175.16,83.75 C176.34,84.06 177.06,83.91 176.75,83.41 C176.45,82.91 177.55,82.45 179.20,82.39 C180.86,82.33 182.61,81.65 183.09,80.89 C183.57,80.12 183.98,79.93 183.98,80.45 C183.99,80.97 184.50,80.90 185.12,80.28 C185.74,79.66 186.94,79.42 187.79,79.75 C188.86,80.16 189.09,79.95 188.54,79.06 C187.95,78.11 188.31,77.96 190.00,78.50 C191.69,79.04 192.05,78.89 191.46,77.94 C190.91,77.05 191.14,76.84 192.24,77.26 C193.10,77.59 194.07,77.59 194.40,77.27 C194.72,76.94 196.46,76.52 198.25,76.32 C200.04,76.13 201.65,75.52 201.83,74.98 C202.02,74.44 203.20,74.26 204.47,74.58 C205.74,74.90 207.08,74.68 207.45,74.08 C208.35,72.62 220.00,72.65 220.00,74.12 C220.00,74.77 221.04,75.03 222.50,74.76 C223.88,74.49 225.00,74.62 225.00,75.03 C225.00,75.44 226.24,76.08 227.75,76.45 C232.51,77.61 237.88,81.84 240.18,86.25 C241.40,88.59 242.29,91.06 242.16,91.75 C242.02,92.44 242.38,93.00 242.96,93.00 C243.55,93.00 244.00,95.35 244.00,98.50 C244.00,102.62 243.64,104.00 242.56,104.00 C241.77,104.00 240.83,103.54 240.49,102.98 C238.76,100.18 229.27,96.69 222.50,96.37 L 215.50 96.04 L 219.54 97.39 C231.42,101.38 240.28,108.75 242.96,116.88 C244.78,122.38 246.95,123.07 247.16,118.22 C247.24,116.17 247.29,113.92 247.26,113.21 C247.22,112.20 247.52,112.18 248.68,113.15 C250.07,114.30 254.36,121.74 254.45,123.17 C254.48,123.53 254.81,124.14 255.18,124.51 C255.56,124.89 255.62,125.83 255.32,126.60 C255.03,127.37 255.19,128.00 255.69,128.00 C256.18,128.00 256.59,131.15 256.59,135.00 C256.59,138.85 256.20,142.00 255.73,142.00 C255.25,142.00 255.15,142.90 255.50,144.00 C255.85,145.10 255.70,146.00 255.18,146.00 C254.33,146.00 252.60,150.58 253.19,151.25 C253.53,151.62 249.00,156.98 245.22,160.70 C241.21,164.64 231.54,169.37 222.91,171.62 ZM 179.65 258.16 C180.36,259.69 181.10,261.39 181.65,262.75 C181.32,262.04 180.96,261.28 180.59,260.50 L 178.21 255.50 L 178.74 261.25 C179.20,266.13 179.03,267.00 177.64,267.00 C177.09,267.00 176.72,266.79 176.47,266.08 L 177.50 253.50 ZM 133.00 258.78 C133.00,258.52 133.00,258.27 133.00,258.00 C133.00,249.83 133.19,248.89 134.75,249.18 C135.89,249.40 136.61,250.61 136.81,252.66 C137.07,255.41 137.53,255.84 140.56,256.20 C143.63,256.56 143.96,256.55 144.00,253.75 L 143.99 256.50 L 139.50 256.53 C135.06,256.55 135.00,256.51 135.00,253.22 C135.00,251.25 134.59,250.14 134.00,250.50 C133.46,250.83 133.02,254.53 133.00,258.78 ZM 245.63 55.23 C245.69,55.29 245.76,55.35 245.84,55.40 C246.37,55.73 246.59,56.85 246.32,57.89 C246.05,58.93 246.31,60.08 246.91,60.45 C248.32,61.32 248.32,66.68 246.92,67.55 C246.32,67.92 246.11,69.29 246.44,70.61 C246.81,72.08 246.60,73.00 245.90,73.00 C245.28,73.00 244.98,73.80 245.23,74.78 C244.98,73.80 245.16,73.00 245.63,73.00 C246.63,73.00 246.60,57.35 245.63,55.23 ZM 135.00 263.00 L 135.00 259.00 L 139.81 259.00 C136.58,259.01 136.50,259.24 136.50,262.73 C136.50,265.48 136.04,266.54 134.75,266.80 C134.57,266.83 134.41,266.85 134.27,266.85 C134.69,266.37 135.00,264.82 135.00,263.00 ZM 241.60 261.16 C241.25,260.60 241.34,259.43 241.64,258.34 C241.44,259.55 242.01,260.01 243.86,260.29 C245.31,260.52 246.58,260.77 246.68,260.85 C246.78,260.93 246.44,259.54 245.93,257.76 C245.79,257.27 245.66,256.80 245.54,256.37 C246.30,257.96 247.00,259.94 247.00,260.93 C247.00,261.89 242.17,262.09 241.60,261.16 ZM 113.61 254.17 C112.94,255.90 112.69,260.05 113.03,262.36 C112.70,261.87 112.38,261.33 112.07,260.73 C110.77,258.22 110.83,257.70 112.67,255.23 C112.96,254.84 113.27,254.49 113.61,254.17 ZM 280.60 262.49 C280.75,262.70 280.81,262.96 280.75,263.23 C280.59,264.03 281.74,264.45 284.00,264.41 C286.68,264.37 287.57,263.90 287.79,262.41 C287.83,262.12 287.83,261.86 287.78,261.62 C288.31,262.68 287.89,263.85 286.47,265.02 C285.29,266.01 284.37,266.03 282.41,265.14 C281.02,264.51 280.16,263.54 280.50,263.00 C280.62,262.81 280.64,262.64 280.60,262.49 ZM 284.30 252.01 C282.38,252.08 282.00,252.59 282.00,254.57 C282.00,255.65 282.09,256.27 282.41,256.54 C280.85,256.27 279.78,255.02 280.32,253.60 C280.76,252.47 282.49,251.94 284.30,252.01 ZM 114.53 264.13 C115.21,264.26 116.17,264.38 117.18,264.46 C119.53,264.66 120.97,264.16 122.11,262.73 C123.07,261.53 123.96,261.14 124.35,261.76 C123.97,261.14 123.07,261.54 122.11,262.76 C119.62,265.89 116.92,266.32 114.53,264.13 ZM 289.21 251.71 C290.81,252.58 292.00,253.57 292.00,254.24 C292.00,255.09 290.88,255.19 289.87,254.81 C289.94,254.65 289.96,254.34 289.97,253.87 C289.98,253.04 289.70,252.31 289.21,251.71 ZM 263.00 256.50 L 263.00 257.93 C263.00,253.87 262.50,251.36 261.50,250.36 C261.01,249.87 260.68,249.67 260.46,250.01 C260.69,249.26 261.02,249.00 261.50,249.00 C262.70,249.00 263.00,250.50 263.00,256.50 ZM 206.00 258.00 C206.00,258.31 206.00,258.60 206.00,258.89 C205.97,253.86 205.53,251.39 204.50,250.36 C204.01,249.87 203.68,249.67 203.46,250.01 C203.69,249.26 204.02,249.00 204.50,249.00 C205.72,249.00 206.00,250.67 206.00,258.00 ZM 218.04 263.26 C219.21,264.31 221.24,264.75 223.10,264.51 C223.04,264.62 223.00,264.76 223.00,264.94 C223.00,266.51 221.51,266.23 218.99,264.20 C218.64,263.91 218.32,263.59 218.04,263.26 ZM 176.31 265.48 C176.06,264.21 176.00,261.94 176.00,258.00 C176.00,253.05 176.26,249.00 176.57,249.00 C176.26,249.01 176.08,253.17 176.18,258.25 ZM 140.71 259.00 L 144.00 259.00 L 144.00 263.00 C144.00,259.22 143.96,259.01 140.71,259.00 ZM 223.82 264.39 C224.77,264.17 225.64,263.76 226.26,263.14 C226.86,262.54 227.71,262.17 228.46,262.05 C227.62,262.22 226.64,262.73 226.01,263.49 C225.33,264.31 224.37,264.73 223.89,264.43 C223.86,264.42 223.84,264.40 223.82,264.39 ZM 279.58 251.86 C280.81,250.34 281.78,249.79 283.39,249.86 C281.92,250.07 280.52,250.71 279.58,251.87 C278.72,252.94 278.30,253.88 278.35,254.74 C278.30,253.88 278.72,252.93 279.58,251.86 ZM 133.64 266.52 C133.15,265.87 133.03,264.08 133.00,259.88 C133.04,263.07 133.28,265.53 133.64,266.52 ZM 123.86 254.52 C123.22,255.10 122.68,254.98 122.09,254.09 C122.75,254.79 123.33,254.94 123.86,254.52 ZM 216.65 256.50 C216.35,257.88 216.37,259.41 216.70,260.74 C216.29,259.34 216.29,257.85 216.65,256.50 ZM 223.30 252.16 C222.35,251.99 221.31,252.02 220.38,252.23 C220.85,252.08 221.36,252.00 221.90,252.00 C222.36,252.00 222.83,252.06 223.30,252.16 ZM 289.14 254.43 C288.79,254.18 288.50,253.87 288.36,253.50 C288.35,253.48 288.35,253.46 288.34,253.44 C288.44,253.54 288.53,253.64 288.61,253.75 C288.82,254.02 288.99,254.25 289.14,254.43 ZM 183.28 266.37 C183.58,266.67 183.92,266.83 184.27,266.86 C183.83,266.94 183.46,266.81 183.28,266.37 ZM 123.59 252.20 C122.35,250.83 119.74,249.50 117.50,249.50 C119.79,249.50 122.38,250.83 123.59,252.20 ZM 245.51 52.98 C245.49,53.11 245.46,53.25 245.40,53.40 C245.32,53.60 245.28,53.81 245.27,54.02 C245.26,53.64 245.33,53.27 245.50,53.00 C245.50,52.99 245.51,52.98 245.51,52.98 ZM 243.87 254.00 C243.34,254.04 243.17,254.47 243.50,255.00 C243.16,254.45 243.31,254.00 243.84,254.00 C243.85,254.00 243.86,254.00 243.87,254.00 ZM 279.52 262.00 C278.43,262.01 277.96,262.38 278.09,263.13 C277.95,262.38 278.42,262.00 279.50,262.00 Z" fill="rgb(80,183,76)"/>
<path d="M 263.45 235.35 L 265.90 238.00 L 256.48 238.00 C248.37,238.00 247.15,237.78 247.66,236.44 C247.99,235.59 248.87,235.12 249.61,235.41 C250.36,235.69 251.43,235.07 251.98,234.03 C253.14,231.87 253.36,203.08 252.23,201.41 C251.83,200.82 250.60,199.82 249.50,199.19 C247.92,198.30 249.69,198.08 258.00,198.15 C263.77,198.19 267.60,198.45 266.50,198.72 C262.93,199.60 262.49,200.69 262.83,207.91 L 263.16 215.00 L 279.00 215.00 L 278.99 209.75 C278.97,202.44 278.26,200.50 275.18,199.27 C273.02,198.42 274.55,198.20 283.00,198.17 C290.21,198.14 292.80,198.41 291.25,199.03 C289.98,199.54 289.00,200.80 289.00,201.91 C289.00,202.99 288.58,204.14 288.08,204.45 C287.57,204.77 287.20,211.59 287.25,219.61 C287.35,235.32 287.87,237.00 292.57,237.00 C293.91,237.00 295.00,236.48 295.00,235.83 C295.00,235.19 295.27,234.94 295.61,235.27 C296.79,236.45 299.82,232.42 302.22,226.50 C303.56,223.20 306.87,214.76 309.57,207.75 C312.28,200.74 314.80,195.00 315.17,195.00 C315.54,195.00 316.36,196.55 316.98,198.44 C317.60,200.32 318.43,202.01 318.82,202.19 C319.21,202.36 320.33,205.09 321.32,208.25 C322.30,211.41 323.56,214.00 324.11,214.00 C324.66,214.00 324.84,214.45 324.50,215.00 C324.16,215.55 324.34,216.00 324.91,216.00 C325.47,216.00 325.65,216.75 325.30,217.66 C324.90,218.69 325.06,219.08 325.71,218.68 C326.33,218.30 326.75,219.08 326.75,220.63 C326.75,222.06 327.14,223.51 327.62,223.86 C328.11,224.21 328.65,225.40 328.84,226.50 C329.03,227.60 329.59,228.65 330.10,228.84 C330.60,229.02 330.76,229.58 330.45,230.09 C330.14,230.59 330.39,231.00 331.00,231.00 C331.61,231.00 331.84,231.45 331.50,232.00 C331.16,232.55 331.39,233.00 332.00,233.00 C332.61,233.00 332.85,233.43 332.53,233.95 C332.21,234.48 333.19,235.58 334.72,236.41 C337.35,237.84 336.93,237.92 327.00,237.95 C317.79,237.97 316.81,237.81 319.00,236.68 C321.88,235.18 322.05,232.45 319.62,226.62 L 318.06 222.90 L 311.78 223.20 C306.51,223.45 305.52,223.78 305.64,225.25 C305.72,226.21 305.35,227.00 304.82,227.00 C304.30,227.00 304.15,227.90 304.50,229.00 C304.86,230.15 304.68,231.00 304.07,231.00 C303.48,231.00 303.00,231.48 303.00,232.07 C303.00,233.46 305.54,236.00 306.93,236.00 C307.52,236.00 308.00,236.45 308.00,237.00 C308.00,237.63 301.47,237.97 290.25,237.92 C280.49,237.88 273.17,237.60 274.00,237.31 C277.04,236.22 278.00,233.59 278.00,226.31 L 278.00 219.00 L 270.11 219.00 C261.09,219.00 261.00,219.09 261.00,227.44 C261.00,231.65 261.49,233.24 263.45,235.35 ZM 95.21 234.26 L 91.97 237.50 L 77.23 237.76 C65.82,237.97 62.95,237.77 64.50,236.89 C68.62,234.55 69.00,233.07 69.00,219.43 C69.00,203.88 68.44,200.27 65.88,199.46 C64.85,199.13 64.00,198.16 64.00,197.30 C64.00,195.92 65.53,195.82 76.72,196.45 C90.65,197.25 94.48,198.49 96.10,202.76 C97.87,207.43 96.70,209.70 89.50,215.54 C87.85,216.88 87.80,217.07 89.25,216.61 C90.21,216.31 91.00,216.44 91.00,216.91 C91.00,217.38 92.35,218.32 94.00,219.00 C95.65,219.68 97.00,220.86 97.00,221.62 C97.00,222.38 97.34,223.00 97.75,223.00 C98.16,223.00 98.49,224.80 98.47,227.01 C98.46,230.17 97.77,231.69 95.21,234.26 ZM 122.45 236.59 C124.16,237.84 123.14,238.00 113.65,238.00 C104.49,238.00 103.11,237.79 104.21,236.60 C104.92,235.82 105.95,235.26 106.50,235.35 C107.13,235.44 107.60,229.03 107.77,218.24 L 108.05 200.98 L 105.45 199.80 L 102.86 198.61 L 107.18 197.32 C113.85,195.33 125.86,195.63 130.57,197.91 C132.75,198.96 135.25,200.65 136.14,201.66 C137.84,203.60 139.19,210.00 137.89,210.00 C137.48,210.00 136.86,210.86 136.53,211.92 C136.19,212.97 134.09,214.73 131.86,215.84 L 127.80 217.85 L 130.89 219.44 C132.60,220.33 134.25,222.14 134.59,223.52 C134.94,224.88 135.67,226.00 136.22,226.00 C136.76,226.00 136.94,226.71 136.61,227.57 C135.68,230.00 139.42,236.00 141.87,236.00 C142.43,236.00 143.16,236.45 143.50,237.00 C143.89,237.63 141.36,238.00 136.60,238.00 L 129.08 238.00 L 128.13 234.25 C127.61,232.19 126.89,228.76 126.53,226.64 C125.84,222.61 122.15,218.00 119.62,218.00 C118.49,218.00 118.08,219.77 117.80,225.75 C117.48,232.88 118.26,236.58 119.87,235.58 C120.23,235.36 121.39,235.81 122.45,236.59 ZM 204.00 237.48 C204.00,237.76 200.61,238.00 196.46,238.00 C190.06,238.00 189.12,237.79 190.21,236.60 C190.92,235.84 191.81,235.40 192.18,235.62 C192.56,235.85 193.57,235.03 194.43,233.79 C195.67,232.02 196.00,228.68 196.00,217.86 C196.00,210.33 195.71,203.42 195.36,202.51 C195.01,201.59 193.55,200.33 192.11,199.69 C189.71,198.63 189.99,198.50 195.46,198.21 C201.73,197.87 206.15,198.54 205.76,199.77 C205.36,201.02 208.19,207.00 209.18,207.00 C209.70,207.00 209.84,207.45 209.50,208.00 C209.16,208.55 209.39,209.00 210.00,209.00 C210.61,209.00 210.84,209.45 210.50,210.00 C210.16,210.55 210.39,211.00 211.00,211.00 C211.61,211.00 211.86,211.41 211.55,211.92 C211.24,212.43 211.64,213.50 212.44,214.30 C213.25,215.10 213.63,216.04 213.29,216.38 C212.95,216.72 213.22,217.00 213.89,217.00 C214.57,217.00 214.84,217.45 214.50,218.00 C214.16,218.55 214.36,219.00 214.94,219.00 C215.52,219.00 215.93,219.34 215.84,219.75 C215.60,220.87 217.11,224.00 217.89,224.00 C218.27,224.00 221.02,218.15 224.00,211.00 L 229.42 198.00 L 234.71 198.00 C237.62,198.00 240.00,197.55 240.00,197.00 C240.00,195.49 242.95,195.80 244.64,197.50 C245.98,198.83 245.93,199.00 244.19,199.00 C241.31,199.00 239.59,201.68 239.47,206.36 C239.41,208.64 238.99,213.76 238.54,217.73 C237.88,223.54 238.06,226.07 239.47,230.55 C240.49,233.80 241.70,235.94 242.37,235.69 C243.00,235.45 244.09,235.87 244.79,236.63 C245.88,237.79 244.41,238.00 235.39,238.00 L 224.71 238.00 L 227.35 235.55 C229.97,233.12 230.00,232.95 229.97,219.30 C229.95,210.68 229.60,206.07 229.04,207.03 C228.55,207.87 228.00,209.22 227.82,210.03 C227.65,210.84 227.14,211.77 226.70,212.09 C226.26,212.41 225.83,213.65 225.74,214.84 C225.65,216.03 225.19,217.00 224.73,217.00 C224.26,217.00 224.14,217.41 224.45,217.91 C224.76,218.42 224.60,218.98 224.10,219.16 C223.59,219.35 223.03,220.40 222.84,221.50 C222.65,222.60 221.91,224.12 221.19,224.88 C220.47,225.64 220.12,226.87 220.41,227.63 C220.70,228.38 220.45,229.00 219.86,229.00 C219.27,229.00 219.03,229.65 219.34,230.44 C219.64,231.22 219.44,232.02 218.90,232.20 C218.36,232.38 217.84,233.52 217.74,234.74 C217.32,240.37 214.80,237.47 207.29,222.71 L 199.54 207.50 L 198.65 214.50 C198.05,219.26 198.13,223.35 198.92,227.27 C199.56,230.45 199.82,233.49 199.48,234.03 C199.15,234.56 200.03,235.44 201.44,235.98 C202.85,236.51 204.00,237.19 204.00,237.48 ZM 158.79 236.63 C159.88,237.78 158.88,238.00 152.46,238.00 C146.80,238.00 144.94,237.68 145.25,236.75 C145.48,236.06 146.30,235.50 147.08,235.50 C148.92,235.50 151.71,229.79 158.55,212.00 C161.62,204.02 164.52,197.10 165.01,196.60 C165.89,195.71 170.74,202.78 170.25,204.25 C170.11,204.66 170.35,205.00 170.79,205.00 C171.22,205.00 171.65,205.97 171.74,207.16 C171.83,208.35 172.26,209.59 172.70,209.91 C173.14,210.23 173.66,211.40 173.85,212.50 C174.04,213.60 174.49,214.73 174.85,215.00 C175.21,215.27 175.66,216.40 175.85,217.50 C176.04,218.60 176.64,219.78 177.19,220.11 C177.73,220.45 178.02,220.90 177.84,221.11 C177.22,221.85 180.32,230.00 181.22,230.00 C181.71,230.00 181.84,230.45 181.50,231.00 C181.16,231.55 181.36,232.00 181.94,232.00 C182.52,232.00 183.00,232.66 183.00,233.47 C183.00,234.28 184.24,235.61 185.75,236.43 C188.33,237.83 187.86,237.92 178.00,237.89 C169.45,237.87 167.94,237.65 169.85,236.73 C171.85,235.78 172.13,235.05 171.71,232.05 C171.43,230.10 170.72,227.26 170.13,225.75 C169.12,223.18 168.67,223.00 163.06,223.00 C158.07,223.00 156.89,223.34 155.99,225.02 C155.39,226.13 155.16,227.44 155.46,227.94 C155.76,228.43 155.62,228.98 155.13,229.16 C154.64,229.35 154.47,230.99 154.75,232.81 C155.03,234.72 155.73,235.94 156.38,235.69 C157.00,235.45 158.09,235.87 158.79,236.63 ZM 78.51 235.17 C79.62,236.29 85.11,235.21 86.99,233.51 C88.42,232.21 89.00,230.43 89.00,227.30 C89.00,221.87 85.69,218.00 81.05,218.00 L 78.00 218.00 L 78.00 226.33 C78.00,230.92 78.23,234.89 78.51,235.17 ZM 119.20 215.14 C122.65,217.30 128.00,212.66 128.00,207.50 C128.00,203.32 125.34,200.16 121.50,199.79 L 118.50 199.50 L 118.20 206.91 C117.99,212.17 118.28,214.56 119.20,215.14 ZM 78.53 213.21 C79.37,215.40 83.98,214.74 86.09,212.14 C88.40,209.28 88.56,204.25 86.44,201.22 C84.59,198.58 79.53,198.17 78.61,200.58 C77.86,202.53 77.81,211.33 78.53,213.21 ZM 307.00 220.00 C307.00,220.55 309.25,221.00 312.00,221.00 C314.75,221.00 317.00,220.67 317.00,220.27 C317.00,218.55 312.55,209.00 311.76,209.00 C311.28,209.00 311.16,209.45 311.50,210.00 C311.84,210.55 311.59,211.00 310.95,211.00 C310.31,211.00 310.05,211.70 310.38,212.55 C310.77,213.57 310.58,213.86 309.82,213.39 C309.04,212.91 308.87,213.22 309.30,214.34 C309.65,215.25 309.45,216.00 308.86,216.00 C308.27,216.00 308.05,216.68 308.36,217.50 C308.68,218.32 308.50,219.00 307.97,219.00 C307.44,219.00 307.00,219.45 307.00,220.00 ZM 158.64 219.50 C159.44,221.58 167.00,221.59 167.00,219.52 C167.00,216.78 163.79,210.00 162.50,210.00 C161.02,210.00 159.72,212.74 160.56,214.09 C160.87,214.59 160.59,215.00 159.95,215.00 C159.31,215.00 159.05,215.68 159.36,216.50 C159.68,217.32 159.52,218.00 159.00,218.00 C158.48,218.00 158.32,218.68 158.64,219.50 Z" fill="rgb(217,53,62)"/>
<path d="M 0.00 153.50 L 0.00 0.00 L 193.50 0.00 L 387.00 0.00 L 387.00 153.50 L 387.00 307.00 L 193.50 307.00 L 0.00 307.00 L 0.00 153.50 ZM 123.24 264.81 C124.20,263.70 124.70,262.33 124.35,261.76 C123.97,261.14 123.08,261.52 122.11,262.73 C120.97,264.16 119.53,264.66 117.18,264.46 C115.35,264.31 113.70,264.03 113.52,263.84 C112.47,262.78 112.78,254.97 113.92,253.60 C115.70,251.45 120.64,251.54 121.89,253.75 C122.59,254.99 123.19,255.19 123.95,254.44 C125.54,252.86 121.15,249.50 117.50,249.50 C108.58,249.50 106.01,262.94 114.24,266.50 C118.05,268.14 120.81,267.62 123.24,264.81 ZM 226.68 265.75 C228.50,264.51 229.99,263.16 229.99,262.75 C230.00,261.60 227.54,261.86 226.26,263.14 C224.13,265.27 219.03,264.97 217.51,262.64 C215.90,260.18 216.14,255.74 217.98,253.52 C219.60,251.57 224.39,251.56 226.00,253.50 C226.68,254.32 227.98,254.99 228.87,254.98 C230.29,254.97 230.31,254.84 229.00,254.00 C228.18,253.47 227.92,253.02 228.44,253.02 C228.96,253.01 228.51,252.34 227.44,251.53 C224.65,249.42 219.69,249.67 216.63,252.07 C211.75,255.92 214.18,266.12 220.27,267.30 C221.50,267.53 222.70,267.79 222.94,267.86 C223.18,267.94 224.86,266.99 226.68,265.75 ZM 290.58 264.57 C293.06,262.08 292.32,259.23 289.00,258.50 C287.35,258.14 286.00,257.40 286.00,256.85 C286.00,256.31 285.10,256.15 284.00,256.50 C282.35,257.02 282.00,256.68 282.00,254.57 C282.00,252.40 282.45,252.00 284.89,252.00 C286.54,252.00 288.03,252.64 288.36,253.50 C288.94,255.02 292.00,255.64 292.00,254.24 C292.00,252.97 287.69,250.53 284.50,249.99 C282.17,249.60 281.07,250.02 279.58,251.86 C277.08,254.97 278.32,257.02 283.88,258.98 C287.09,260.12 288.01,260.92 287.79,262.41 C287.57,263.90 286.68,264.37 284.00,264.41 C281.74,264.45 280.59,264.03 280.75,263.23 C280.89,262.55 280.33,262.00 279.50,262.00 C277.67,262.00 277.59,263.09 279.25,265.22 C281.58,268.22 287.25,267.90 290.58,264.57 ZM 136.50 262.73 C136.50,259.09 136.59,259.00 140.25,259.00 C143.96,259.00 144.00,259.04 144.00,263.00 C144.00,265.89 144.42,267.00 145.50,267.00 C146.72,267.00 147.00,265.33 147.00,258.00 C147.00,250.67 146.72,249.00 145.50,249.00 C144.43,249.00 144.00,250.09 144.00,252.80 C144.00,256.54 143.95,256.59 140.56,256.20 C137.53,255.84 137.07,255.41 136.81,252.66 C136.61,250.61 135.89,249.40 134.75,249.18 C133.19,248.89 133.00,249.83 133.00,258.00 C133.00,266.18 133.19,267.11 134.75,266.80 C136.04,266.54 136.50,265.48 136.50,262.73 ZM 166.00 265.50 C166.00,264.45 164.94,264.00 162.50,264.00 C159.43,264.00 159.00,263.69 159.00,261.50 C159.00,259.31 159.43,259.00 162.50,259.00 C164.94,259.00 166.00,258.55 166.00,257.50 C166.00,256.45 164.94,256.00 162.50,256.00 C159.67,256.00 159.00,255.62 159.00,254.00 C159.00,252.38 159.67,252.00 162.50,252.00 C164.94,252.00 166.00,251.55 166.00,250.50 C166.00,249.37 164.78,249.00 161.00,249.00 L 156.00 249.00 L 156.00 258.00 L 156.00 267.00 L 161.00 267.00 C164.78,267.00 166.00,266.63 166.00,265.50 ZM 178.74 261.25 L 178.21 255.50 L 180.59 260.50 C181.90,263.25 183.10,265.86 183.26,266.31 C183.81,267.89 186.58,265.91 186.74,263.81 C186.83,262.64 187.26,261.41 187.70,261.09 C188.14,260.77 188.65,259.84 188.82,259.03 C189.89,254.20 190.94,255.05 190.97,260.75 C190.99,265.70 191.32,267.00 192.54,267.00 C193.83,267.00 194.03,265.58 193.79,258.25 C193.43,247.25 191.77,246.61 187.86,255.97 C186.38,259.53 184.61,262.63 183.94,262.85 C183.27,263.08 183.01,262.79 183.37,262.22 C183.72,261.64 183.59,261.02 183.07,260.84 C182.54,260.65 181.89,259.22 181.61,257.66 C181.33,256.10 180.57,254.19 179.93,253.41 C179.28,252.64 179.07,252.00 179.45,252.00 C179.83,252.00 179.47,251.32 178.64,250.50 C177.82,249.68 176.89,249.00 176.57,249.00 C176.26,249.00 176.00,253.05 176.00,258.00 C176.00,265.67 176.24,267.00 177.64,267.00 C179.03,267.00 179.20,266.13 178.74,261.25 ZM 206.00 258.00 C206.00,250.67 205.72,249.00 204.50,249.00 C203.28,249.00 203.00,250.67 203.00,258.00 C203.00,265.33 203.28,267.00 204.50,267.00 C205.72,267.00 206.00,265.33 206.00,258.00 ZM 239.79 265.25 C239.56,263.84 240.35,263.44 243.83,263.19 C247.50,262.92 248.24,263.19 248.69,264.94 C248.99,266.07 249.86,267.00 250.62,267.00 C252.22,267.00 252.49,264.42 250.98,263.49 C250.42,263.14 250.23,262.44 250.54,261.93 C250.86,261.42 250.64,261.00 250.06,261.00 C249.48,261.00 249.10,260.66 249.21,260.25 C249.33,259.84 248.86,258.49 248.18,257.25 C247.49,256.01 247.23,255.00 247.59,255.00 C247.95,255.00 247.68,254.32 247.00,253.50 C246.32,252.68 246.07,252.00 246.45,252.00 C246.83,252.00 246.47,251.32 245.64,250.50 C243.27,248.13 243.88,247.20 237.91,262.25 C236.04,266.97 236.04,267.00 238.06,267.00 C239.44,267.00 239.99,266.44 239.79,265.25 ZM 270.00 265.50 C270.00,264.45 268.94,264.00 266.50,264.00 L 263.00 264.00 L 263.00 256.50 C263.00,250.50 262.70,249.00 261.50,249.00 C260.28,249.00 260.00,250.67 260.00,258.00 L 260.00 267.00 L 265.00 267.00 C268.78,267.00 270.00,266.63 270.00,265.50 ZM 95.21 234.26 C97.77,231.69 98.46,230.17 98.47,227.01 C98.49,224.80 98.16,223.00 97.75,223.00 C97.34,223.00 97.00,222.38 97.00,221.62 C97.00,220.86 95.65,219.68 94.00,219.00 C92.35,218.32 91.00,217.38 91.00,216.91 C91.00,216.44 90.21,216.31 89.25,216.61 C87.80,217.07 87.85,216.88 89.50,215.54 C96.70,209.70 97.87,207.43 96.10,202.76 C94.48,198.49 90.65,197.25 76.72,196.45 C65.53,195.82 64.00,195.92 64.00,197.30 C64.00,198.16 64.85,199.13 65.88,199.46 C68.44,200.27 69.00,203.88 69.00,219.43 C69.00,233.07 68.62,234.55 64.50,236.89 C62.95,237.77 65.82,237.97 77.23,237.76 L 91.97 237.50 L 95.21 234.26 ZM 122.45 236.59 C121.39,235.81 120.23,235.36 119.87,235.58 C118.26,236.58 117.48,232.88 117.80,225.75 C118.08,219.77 118.49,218.00 119.62,218.00 C122.15,218.00 125.84,222.61 126.53,226.64 C126.89,228.76 127.61,232.19 128.13,234.25 L 129.08 238.00 L 136.60 238.00 C141.36,238.00 143.89,237.63 143.50,237.00 C143.16,236.45 142.43,236.00 141.87,236.00 C139.42,236.00 135.68,230.00 136.61,227.57 C136.94,226.71 136.76,226.00 136.22,226.00 C135.67,226.00 134.94,224.88 134.59,223.52 C134.25,222.14 132.60,220.33 130.89,219.44 L 127.80 217.85 L 131.86 215.84 C134.09,214.73 136.19,212.97 136.53,211.92 C136.86,210.86 137.48,210.00 137.89,210.00 C139.19,210.00 137.84,203.60 136.14,201.66 C135.25,200.65 132.75,198.96 130.57,197.91 C125.86,195.63 113.85,195.33 107.18,197.32 L 102.86 198.61 L 105.45 199.80 L 108.05 200.98 L 107.77 218.24 C107.60,229.03 107.13,235.44 106.50,235.35 C105.95,235.26 104.92,235.82 104.21,236.60 C103.11,237.79 104.49,238.00 113.65,238.00 C123.14,238.00 124.16,237.84 122.45,236.59 ZM 158.79 236.63 C158.09,235.87 157.00,235.45 156.38,235.69 C155.73,235.94 155.03,234.72 154.75,232.81 C154.47,230.99 154.64,229.35 155.13,229.16 C155.62,228.98 155.76,228.43 155.46,227.94 C155.16,227.44 155.39,226.13 155.99,225.02 C156.89,223.34 158.07,223.00 163.06,223.00 C168.67,223.00 169.12,223.18 170.13,225.75 C170.72,227.26 171.43,230.10 171.71,232.05 C172.13,235.05 171.85,235.78 169.85,236.73 C167.94,237.65 169.45,237.87 178.00,237.89 C187.86,237.92 188.33,237.83 185.75,236.43 C184.24,235.61 183.00,234.28 183.00,233.47 C183.00,232.66 182.52,232.00 181.94,232.00 C181.36,232.00 181.16,231.55 181.50,231.00 C181.84,230.45 181.71,230.00 181.22,230.00 C180.32,230.00 177.22,221.85 177.84,221.11 C178.02,220.90 177.73,220.45 177.19,220.11 C176.64,219.78 176.04,218.60 175.85,217.50 C175.66,216.40 175.21,215.27 174.85,215.00 C174.49,214.73 174.04,213.60 173.85,212.50 C173.66,211.40 173.14,210.23 172.70,209.91 C172.26,209.59 171.83,208.35 171.74,207.16 C171.65,205.97 171.22,205.00 170.79,205.00 C170.35,205.00 170.11,204.66 170.25,204.25 C170.74,202.78 165.89,195.71 165.01,196.60 C164.52,197.10 161.62,204.02 158.55,212.00 C151.71,229.79 148.92,235.50 147.08,235.50 C146.30,235.50 145.48,236.06 145.25,236.75 C144.94,237.68 146.80,238.00 152.46,238.00 C158.88,238.00 159.88,237.78 158.79,236.63 ZM 204.00 237.48 C204.00,237.19 202.85,236.51 201.44,235.98 C200.03,235.44 199.15,234.56 199.48,234.03 C199.82,233.49 199.56,230.45 198.92,227.27 C198.13,223.35 198.05,219.26 198.65,214.50 L 199.54 207.50 L 207.29 222.71 C214.80,237.47 217.32,240.37 217.74,234.74 C217.84,233.52 218.36,232.38 218.90,232.20 C219.44,232.02 219.64,231.22 219.34,230.44 C219.03,229.65 219.27,229.00 219.86,229.00 C220.45,229.00 220.70,228.38 220.41,227.63 C220.12,226.87 220.47,225.64 221.19,224.88 C221.91,224.12 222.65,222.60 222.84,221.50 C223.03,220.40 223.59,219.35 224.10,219.16 C224.60,218.98 224.76,218.42 224.45,217.91 C224.14,217.41 224.26,217.00 224.73,217.00 C225.19,217.00 225.65,216.03 225.74,214.84 C225.83,213.65 226.26,212.41 226.70,212.09 C227.14,211.77 227.65,210.84 227.82,210.03 C228.00,209.22 228.55,207.87 229.04,207.03 C229.60,206.07 229.95,210.68 229.97,219.30 C230.00,232.95 229.97,233.12 227.35,235.55 L 224.71 238.00 L 235.39 238.00 C244.41,238.00 245.88,237.79 244.79,236.63 C244.09,235.87 243.00,235.45 242.37,235.69 C241.70,235.94 240.49,233.80 239.47,230.55 C238.06,226.07 237.88,223.54 238.54,217.73 C238.99,213.76 239.41,208.64 239.47,206.36 C239.59,201.68 241.31,199.00 244.19,199.00 C245.93,199.00 245.98,198.83 244.64,197.50 C242.95,195.80 240.00,195.49 240.00,197.00 C240.00,197.55 237.62,198.00 234.71,198.00 L 229.42 198.00 L 224.00 211.00 C221.02,218.15 218.27,224.00 217.89,224.00 C217.11,224.00 215.60,220.87 215.84,219.75 C215.93,219.34 215.52,219.00 214.94,219.00 C214.36,219.00 214.16,218.55 214.50,218.00 C214.84,217.45 214.57,217.00 213.89,217.00 C213.22,217.00 212.95,216.72 213.29,216.38 C213.63,216.04 213.25,215.10 212.44,214.30 C211.64,213.50 211.24,212.43 211.55,211.92 C211.86,211.41 211.61,211.00 211.00,211.00 C210.39,211.00 210.16,210.55 210.50,210.00 C210.84,209.45 210.61,209.00 210.00,209.00 C209.39,209.00 209.16,208.55 209.50,208.00 C209.84,207.45 209.70,207.00 209.18,207.00 C208.19,207.00 205.36,201.02 205.76,199.77 C206.15,198.54 201.73,197.87 195.46,198.21 C189.99,198.50 189.71,198.63 192.11,199.69 C193.55,200.33 195.01,201.59 195.36,202.51 C195.71,203.42 196.00,210.33 196.00,217.86 C196.00,228.68 195.67,232.02 194.43,233.79 C193.57,235.03 192.56,235.85 192.18,235.62 C191.81,235.40 190.92,235.84 190.21,236.60 C189.12,237.79 190.06,238.00 196.46,238.00 C200.61,238.00 204.00,237.76 204.00,237.48 ZM 263.45 235.35 C261.49,233.24 261.00,231.65 261.00,227.44 C261.00,219.09 261.09,219.00 270.11,219.00 L 278.00 219.00 L 278.00 226.31 C278.00,233.59 277.04,236.22 274.00,237.31 C273.17,237.60 280.49,237.88 290.25,237.92 C301.47,237.97 308.00,237.63 308.00,237.00 C308.00,236.45 307.52,236.00 306.93,236.00 C305.54,236.00 303.00,233.46 303.00,232.07 C303.00,231.48 303.48,231.00 304.07,231.00 C304.68,231.00 304.86,230.15 304.50,229.00 C304.15,227.90 304.30,227.00 304.82,227.00 C305.35,227.00 305.72,226.21 305.64,225.25 C305.52,223.78 306.51,223.45 311.78,223.20 L 318.06 222.90 L 319.62 226.62 C322.05,232.45 321.88,235.18 319.00,236.68 C316.81,237.81 317.79,237.97 327.00,237.95 C336.93,237.92 337.35,237.84 334.72,236.41 C333.19,235.58 332.21,234.48 332.53,233.95 C332.85,233.43 332.61,233.00 332.00,233.00 C331.39,233.00 331.16,232.55 331.50,232.00 C331.84,231.45 331.61,231.00 331.00,231.00 C330.39,231.00 330.14,230.59 330.45,230.09 C330.76,229.58 330.60,229.02 330.10,228.84 C329.59,228.65 329.03,227.60 328.84,226.50 C328.65,225.40 328.11,224.21 327.62,223.86 C327.14,223.51 326.75,222.06 326.75,220.63 C326.75,219.08 326.33,218.30 325.71,218.68 C325.06,219.08 324.90,218.69 325.30,217.66 C325.65,216.75 325.47,216.00 324.91,216.00 C324.34,216.00 324.16,215.55 324.50,215.00 C324.84,214.45 324.66,214.00 324.11,214.00 C323.56,214.00 322.30,211.41 321.32,208.25 C320.33,205.09 319.21,202.36 318.82,202.19 C318.43,202.01 317.60,200.32 316.98,198.44 C316.36,196.55 315.54,195.00 315.17,195.00 C314.80,195.00 312.28,200.74 309.57,207.75 C306.87,214.76 303.56,223.20 302.22,226.50 C299.82,232.42 296.79,236.45 295.61,235.27 C295.27,234.94 295.00,235.19 295.00,235.83 C295.00,236.48 293.91,237.00 292.57,237.00 C287.87,237.00 287.35,235.32 287.25,219.61 C287.20,211.59 287.57,204.77 288.08,204.45 C288.58,204.14 289.00,202.99 289.00,201.91 C289.00,200.80 289.98,199.54 291.25,199.03 C292.80,198.41 290.21,198.14 283.00,198.17 C274.55,198.20 273.02,198.42 275.18,199.27 C278.26,200.50 278.97,202.44 278.99,209.75 L 279.00 215.00 L 271.08 215.00 L 263.16 215.00 L 262.83 207.91 C262.49,200.69 262.93,199.60 266.50,198.72 C267.60,198.45 263.77,198.19 258.00,198.15 C249.69,198.08 247.92,198.30 249.50,199.19 C250.60,199.82 251.83,200.82 252.23,201.41 C253.36,203.08 253.14,231.87 251.98,234.03 C251.43,235.07 250.36,235.69 249.61,235.41 C248.87,235.12 247.99,235.59 247.66,236.44 C247.15,237.78 248.37,238.00 256.48,238.00 L 265.90 238.00 L 263.45 235.35 ZM 222.91 171.62 C231.54,169.37 241.21,164.64 245.22,160.70 C249.00,156.98 253.53,151.62 253.19,151.25 C252.60,150.58 254.33,146.00 255.18,146.00 C255.70,146.00 255.85,145.10 255.50,144.00 C255.15,142.90 255.25,142.00 255.73,142.00 C256.20,142.00 256.59,138.85 256.59,135.00 C256.59,131.15 256.18,128.00 255.69,128.00 C255.19,128.00 255.03,127.37 255.32,126.60 C255.62,125.83 255.56,124.89 255.18,124.51 C254.81,124.14 254.48,123.53 254.45,123.17 C254.36,121.74 250.07,114.30 248.68,113.15 C247.52,112.18 247.22,112.20 247.26,113.21 C247.29,113.92 247.24,116.17 247.16,118.22 C246.95,123.07 244.78,122.38 242.96,116.88 C240.28,108.75 231.42,101.38 219.54,97.39 L 215.50 96.04 L 222.50 96.37 C229.27,96.69 238.76,100.18 240.49,102.98 C240.83,103.54 241.77,104.00 242.56,104.00 C243.64,104.00 244.00,102.62 244.00,98.50 C244.00,95.35 243.55,93.00 242.96,93.00 C242.38,93.00 242.02,92.44 242.16,91.75 C242.29,91.06 241.40,88.59 240.18,86.25 C237.88,81.84 232.51,77.61 227.75,76.45 C226.24,76.08 225.00,75.44 225.00,75.03 C225.00,74.62 223.88,74.49 222.50,74.76 C221.04,75.03 220.00,74.77 220.00,74.12 C220.00,72.65 208.35,72.62 207.45,74.08 C207.08,74.68 205.74,74.90 204.47,74.58 C203.20,74.26 202.02,74.44 201.83,74.98 C201.65,75.52 200.04,76.13 198.25,76.32 C196.46,76.52 194.72,76.94 194.40,77.27 C194.07,77.59 193.10,77.59 192.24,77.26 C191.14,76.84 190.91,77.05 191.46,77.94 C192.05,78.89 191.69,79.04 190.00,78.50 C188.31,77.96 187.95,78.11 188.54,79.06 C189.09,79.95 188.86,80.16 187.79,79.75 C186.94,79.42 185.74,79.66 185.12,80.28 C184.50,80.90 183.99,80.97 183.98,80.45 C183.98,79.93 183.57,80.12 183.09,80.89 C182.61,81.65 180.86,82.33 179.20,82.39 C177.55,82.45 176.45,82.91 176.75,83.41 C177.06,83.91 176.34,84.06 175.16,83.75 C173.97,83.44 173.00,83.64 173.00,84.20 C173.00,84.78 171.95,84.95 170.56,84.60 C169.22,84.27 167.84,84.44 167.50,85.00 C166.82,86.09 159.72,86.39 158.70,85.36 C158.35,85.02 156.40,84.58 154.36,84.40 C152.33,84.21 151.08,84.42 151.58,84.85 C163.57,95.17 176.10,100.16 193.50,101.53 C212.02,103.00 221.98,106.51 227.87,113.66 C234.30,121.46 236.94,137.25 233.47,147.10 C231.12,153.74 219.28,163.53 216.03,161.52 C215.54,161.21 214.85,161.43 214.51,161.99 C214.16,162.55 212.78,162.73 211.44,162.40 C210.10,162.06 209.00,162.17 209.00,162.64 C209.00,163.11 203.26,163.45 196.25,163.39 L 183.50 163.28 L 183.23 134.65 L 182.97 106.03 L 180.23 105.43 C178.73,105.10 175.51,104.20 173.07,103.42 C164.29,100.61 165.00,98.02 165.00,132.89 L 165.00 163.78 L 162.36 164.45 C160.91,164.81 157.36,164.81 154.48,164.45 C151.08,164.03 149.00,164.18 148.56,164.90 C148.19,165.50 147.01,166.00 145.94,166.00 C144.34,166.00 144.00,166.71 144.00,170.09 L 144.00 174.17 L 180.25 173.73 C209.86,173.37 217.68,172.98 222.91,171.62 ZM 176.36 77.52 L 184.50 75.03 L 184.20 58.52 L 183.91 42.00 L 194.70 42.01 C207.39,42.03 214.87,43.74 219.90,47.80 C225.62,52.39 227.96,57.41 227.98,65.04 L 228.00 71.59 L 232.38 72.76 C234.79,73.40 238.15,75.10 239.85,76.53 C242.40,78.67 243.19,78.90 244.32,77.84 C245.08,77.14 245.49,75.76 245.23,74.78 C244.98,73.80 245.28,73.00 245.90,73.00 C246.60,73.00 246.81,72.08 246.44,70.61 C246.11,69.29 246.32,67.92 246.92,67.55 C248.32,66.68 248.32,61.32 246.91,60.45 C246.31,60.08 246.05,58.93 246.32,57.89 C246.59,56.85 246.37,55.73 245.84,55.40 C245.30,55.07 245.11,54.17 245.40,53.40 C245.70,52.63 245.47,52.00 244.91,52.00 C244.34,52.00 244.16,51.55 244.50,51.00 C244.84,50.45 244.61,50.00 244.00,50.00 C243.39,50.00 243.16,49.55 243.50,49.00 C243.84,48.45 243.64,48.00 243.06,48.00 C242.48,48.00 242.00,47.54 242.00,46.99 C242.00,43.80 227.41,34.72 220.14,33.38 C218.14,33.01 216.27,32.44 216.00,32.11 C215.73,31.77 199.86,31.63 180.75,31.80 L 146.00 32.10 L 146.00 37.05 L 146.00 42.00 L 155.50 42.00 L 165.00 42.00 L 165.00 61.00 C165.00,77.78 165.19,80.00 166.61,80.00 C167.49,80.00 171.88,78.88 176.36,77.52 ZM 243.86 260.29 C241.81,259.98 241.33,259.45 241.72,257.94 C242.00,256.87 242.66,256.00 243.18,256.00 C243.69,256.00 243.84,255.55 243.50,255.00 C243.16,254.45 243.36,254.00 243.94,254.00 C244.52,254.00 245.00,254.12 245.00,254.26 C245.00,254.40 245.42,255.97 245.93,257.76 C246.44,259.54 246.78,260.93 246.68,260.85 C246.58,260.77 245.31,260.52 243.86,260.29 ZM 78.51 235.17 C78.23,234.89 78.00,230.92 78.00,226.33 L 78.00 218.00 L 81.05 218.00 C85.69,218.00 89.00,221.87 89.00,227.30 C89.00,230.43 88.42,232.21 86.99,233.51 C85.11,235.21 79.62,236.29 78.51,235.17 ZM 78.53 213.21 C77.81,211.33 77.86,202.53 78.61,200.58 C79.53,198.17 84.59,198.58 86.44,201.22 C88.56,204.25 88.40,209.28 86.09,212.14 C83.98,214.74 79.37,215.40 78.53,213.21 ZM 119.20 215.14 C118.28,214.56 117.99,212.17 118.20,206.91 L 118.50 199.50 L 121.50 199.79 C125.34,200.16 128.00,203.32 128.00,207.50 C128.00,212.66 122.65,217.30 119.20,215.14 ZM 158.64 219.50 C158.32,218.68 158.48,218.00 159.00,218.00 C159.52,218.00 159.68,217.32 159.36,216.50 C159.05,215.68 159.31,215.00 159.95,215.00 C160.59,215.00 160.87,214.59 160.56,214.09 C159.72,212.74 161.02,210.00 162.50,210.00 C163.79,210.00 167.00,216.78 167.00,219.52 C167.00,221.59 159.44,221.58 158.64,219.50 ZM 307.00 220.00 C307.00,219.45 307.44,219.00 307.97,219.00 C308.50,219.00 308.68,218.32 308.36,217.50 C308.05,216.68 308.27,216.00 308.86,216.00 C309.45,216.00 309.65,215.25 309.30,214.34 C308.87,213.22 309.04,212.91 309.82,213.39 C310.58,213.86 310.77,213.57 310.38,212.55 C310.05,211.70 310.31,211.00 310.95,211.00 C311.59,211.00 311.84,210.55 311.50,210.00 C311.16,209.45 311.28,209.00 311.76,209.00 C312.55,209.00 317.00,218.55 317.00,220.27 C317.00,220.67 314.75,221.00 312.00,221.00 C309.25,221.00 307.00,220.55 307.00,220.00 Z" fill="rgb(253,252,252)"/>
</g>
</svg>